PathFileType	4	(X/Y/Z)	17_1_5_p0_0-349.trc
DataRate	CameraRate	NumFrames	NumMarkers	Units	OrigDataRate	OrigDataStartFrame	OrigNumFrames
59.0	59.0	5	27	m	59.0	262	350
Frame#	Time	RHip			RKnee			RAnkle			RBigToe			RSmallToe			RHeel			LHip			LKnee			LAnkle			LBigToe			LSmallToe			LHeel			Neck			Head			Nose			RShoulder			RElbow			RWrist			RThumb			RIndex			RPinky			LShoulder			LElbow			LWrist			LThumb			LIndex			LPinky			
		X1	Y1	Z1	X2	Y2	Z2	X3	Y3	Z3	X4	Y4	Z4	X5	Y5	Z5	X6	Y6	Z6	X7	Y7	Z7	X8	Y8	Z8	X9	Y9	Z9	X10	Y10	Z10	X11	Y11	Z11	X12	Y12	Z12	X13	Y13	Z13	X14	Y14	Z14	X15	Y15	Z15	X16	Y16	Z16	X17	Y17	Z17	X18	Y18	Z18	X19	Y19	Z19	X20	Y20	Z20	X21	Y21	Z21	X22	Y22	Z22	X23	Y23	Z23	X24	Y24	Z24	X25	Y25	Z25	X26	Y26	Z26	X27	Y27	Z27	
262	4.440677966101695	0.23474625602056437	0.5758149140817381	0.8975713438467146	0.26071984077729543	0.6425299984297805	1.295975118309637	0.2736049246599344	0.6972174356020324	1.6795069844639956	0.2925372412278922	0.48853694196658526	1.7117287218412993	0.34316620358647115	0.5824406636346801	1.7410188538273954	0.25758893378483694	0.7356356395204551	1.7257343755916692	0.05235844601791084	0.5686703884979643	0.8861159867913354	0.07057146330065542	0.5549741425696745	1.2798164472317235	0.07636614828038057	0.6429264190700078	1.7162990283290398	0.07642240511945361	0.454926470320857	1.7238496787593667	0.021234820766929518	0.5199028847896557	1.7411871569996984	0.09051966889396912	0.697695630718865	1.7586237983765534	0.115238776709678	0.21755535427927225	0.49237042453224594	0.1320385327928995	0.03663290236893517	0.2533209022411222	0.06499128878880259	0.036246542070926015	0.3868252118615232	0.24031206113269934	0.17390426677657328	0.550548201668923	0.276144463644154	0.09068993482288258	0.7896852219496957	0.26373765077785666	-0.052308189522442976	0.9835615419578966	0.17165392280471334	-0.14146446682303046	1.0114163850510003	0.2081342090021611	-0.1834309156531672	1.010723455140619	0.2597322726825032	-0.14768375082085047	1.0323588337790046	0.03747249111450208	0.32411932918450104	0.462703715098308	0.05285163492042109	0.655114105905584	0.482153928810749	0.1665418184237575	0.6678889953341485	0.557569017906259	0.17033364274289992	0.7126972891485375	0.6016505150081091	0.18160626522534212	0.7292256417356788	0.5984295146023245	0.15370281663862817	0.7744732647199454	0.589875473323198
263	4.4576271186440675	0.23421978182167738	0.5728618050702521	0.8961471083185071	0.2583726670027249	0.6388579266273463	1.2947875808519527	0.2734756039867664	0.6975756058357665	1.6797036547006026	0.29279579060467165	0.48905255170664286	1.7122035183818278	0.3432344031934977	0.5830907215848092	1.741371322630829	0.25203044726330115	0.7516163884314558	1.7294045175707193	0.04162069412208061	0.5798639569083572	0.8897927991943148	0.06036368613506949	0.569444172064742	1.29120816462594	0.08030914969558892	0.6444087186502342	1.7164102341749123	0.07632343177428139	0.45464066542619497	1.7234062515888615	0.021321863302677213	0.5201344236239186	1.7416594678842572	0.0829306801775392	0.7129158682209616	1.7667434796366777	0.11651117366828125	0.20872230926444904	0.4914787703565746	0.13158559456019728	0.035857110368911434	0.24364803367628912	0.06895694922165735	0.017940222405063367	0.3822499343052253	0.23667786859888348	0.17184653371201986	0.550546971514291	0.26816656014112705	0.09858275706269097	0.7953257408835888	0.25448906738546956	-0.03175960132750101	0.9953466351371195	0.16281856111660148	-0.13406996272209087	1.0215190462911483	0.19331779540779973	-0.16052294298281147	1.023146453895936	0.25223340568988273	-0.1389762054842538	1.0496814967875927	0.032538888647592044	0.32877144246827755	0.4717027645133888	0.0434733726490848	0.6210581427322311	0.4711493754161002	0.12359045959318934	0.7203741278247919	0.5793911452202152	0.1358650067130977	0.7564997105142913	0.621698689909659	0.14377975612084742	0.7736981499841586	0.6199921974449928	0.12906809406347236	0.7950781476063186	0.6067132916630444
264	4.47457627118644	0.23420536332388125	0.5730010627386295	0.8960928151781096	0.26117302836186024	0.6418806675785377	1.3000157543260942	0.26301925772074775	0.7120361472554193	1.6873507653850857	0.2866500630402186	0.502544982085032	1.7195864222748969	0.3430609761397877	0.5827127104012086	1.7411545336258063	0.2440854813284848	0.7834276119840169	1.7406370200778074	0.03764648490102529	0.5785713188467086	0.8897144941236605	0.05921952967661222	0.5699598972983256	1.2958001948452922	0.07208042159585806	0.6605476448363318	1.7253334882727869	0.0768252729186396	0.4538862033337092	1.7246209179470966	0.021125262935251764	0.519869008002892	1.7419363323306305	0.07566277830528775	0.7303967218345129	1.7719554809138796	0.11292603896275202	0.20599078842193425	0.48128750770857354	0.13126309541881984	0.03529984176637752	0.24026825909247307	0.06371249810910078	0.026964027140934804	0.3828692088542146	0.23044006414708854	0.15904096311382848	0.5499804310446046	0.2669179483449846	0.09854417489937832	0.7951422397115249	0.23903634311394723	-0.001903709768793958	1.0093045042845736	0.15431921151222744	-0.1294635795552273	1.0245100931496216	0.17689143788565062	-0.1335127310504537	1.0343565800639094	0.24392820472482762	-0.129244792521485	1.060846570116955	0.01776142518698436	0.33514613075516375	0.47387264145030084	0.03392902602923301	0.633626292609979	0.48100915469564837	0.08063910076262118	0.7728592603154353	0.6012132725341715	0.10139637068329549	0.8003021318800452	0.641746864811209	0.10595324701635274	0.8181706582326386	0.6415548802876611	0.10443337148831654	0.8156830304926918	0.623551110002891
265	4.491525423728813	0.2313131074915682	0.5595776360091936	0.8936276753079248	0.2593199282730258	0.6271734074581159	1.2908649047318637	0.2628708365912756	0.7121337090825755	1.6873701034958533	0.2866141008966615	0.5029222908884082	1.7196575703330725	0.3429725385718208	0.5833260234662184	1.741257488876707	0.23723614489778364	0.7663109052350504	1.7340086185737666	0.037458773028914975	0.5789431502348646	0.8896937601643297	0.04954178861732965	0.5976972220361348	1.3035174707770267	0.0676919015149587	0.6582418014554462	1.7253075772942734	0.07780008260485131	0.45613313378736825	1.7308232163903308	0.021043662538328303	0.5198713686435069	1.7420022893221978	0.07280110499781853	0.7133510970799196	1.7645543751491564	0.11257651325357718	0.20634667146585123	0.4780940326143973	0.12941773173796176	0.02672818105326886	0.23737275991314274	0.06378571580113712	0.026995227851003317	0.376811966957548	0.23037367768118852	0.15924700616527612	0.5500121601606058	0.266588475632283	0.09945892557777271	0.7953813215495279	0.23329222427135315	0.006884570500458478	1.0089875634920533	0.14742918507371527	-0.12970862177179535	1.0319535761231093	0.1740476217293604	-0.1343656317941217	1.0439490397145184	0.240050664388915	-0.12865642769520919	1.0688308166203149	0.008304791666496619	0.33352160224375926	0.4695517139713031	0.015499778774064658	0.6124474963155128	0.47549855236284483	0.07403807418942913	0.7567894860686385	0.5876041261502503	0.10243956423091362	0.8022418060065334	0.658858089880171	0.10188544054450427	0.8253546844748567	0.6530587504636525	0.10415518335122505	0.8165571204100297	0.6143578701098272
266	4.508474576271187	0.22947119796826182	0.5465371423834191	0.8993670132229757	0.25566856465223403	0.6248437919252605	1.2906215051172263	0.2628016816618037	0.711740314315905	1.686902287805483	0.29179780770354863	0.4907196413828863	1.7084921796986863	0.34291111343655173	0.583812415834871	1.740766073724529	0.23700428524408743	0.7660400907877727	1.7335189832640177	0.03391649921192014	0.5769383584541695	0.8852961327859454	0.05923370657778203	0.5707839786803418	1.294946666798267	0.06665627645076741	0.6426866663050845	1.711767304087405	0.07812307361951971	0.46948421501285403	1.7320947768413095	0.01883806898941751	0.5189478272377008	1.739747733049857	0.07569059511743759	0.7112381548833788	1.7620382125247576	0.11080394135412307	0.19561288171681512	0.47070734615181964	0.13081095762765257	0.03592443028341871	0.2341419750910768	0.05854698240614839	0.035202666912844426	0.3742028365589228	0.22687916361375907	0.15807963899110952	0.5436093230790952	0.26677704800832036	0.10012085785485539	0.7918755296792751	0.22988720629444537	0.0076869125857974355	1.0124374301188315	0.12337557461036765	-0.09589229874820426	1.0454195635365107	0.15745252557109646	-0.1267885881381896	1.048278471735019	0.2210059309765474	-0.10176154849366538	1.0904026653569965	0.02015042560567209	0.3143470344987394	0.4576846032994545	0.024894518525619122	0.5999404259416484	0.4594872260407625	0.06692135628162542	0.7665369298011999	0.5960663478011125	0.10348275777853175	0.8041814801330216	0.6759693149491331	0.09781763407265578	0.8325387107170749	0.6645626206396438	0.09496029391268827	0.8290555810408327	0.6397790592972624
